# xmcd
#
# Track frame offsets: 
#        150
#        18980
#        35412
#        54495
#        77602
#        94957
#        112432
#        134400
#        156535
#        179417
#        201485
#        222977
#
# Disc length: 3356 seconds
#
# Revision: 11
# Processed by: cddbd v1.5.2PL0 Copyright (c) Steve Scherf et al.
# Submitted via: ExactAudioCopy v1.3
#
DISCID=b50d1a0c
DTITLE=Eric Clapton - August
DYEAR=1986
DGENRE=Rock
TTITLE0=It's In The Way That You Use It
TTITLE1=Run
TTITLE2=Tearing Us Apart
TTITLE3=Bad Influence
TTITLE4=Walk Away
TTITLE5=Hung Up On Your Love
TTITLE6=Take A Chance
TTITLE7=Hold On
TTITLE8=Miss You
TTITLE9=Holy Mother
TTITLE10=Behind The Mask
TTITLE11=Grand Illusion
EXTD=Warner 1986 YEAR: 1986 ID3G: 0
EXTT0=
EXTT1=
EXTT2=
EXTT3=
EXTT4=
EXTT5=
EXTT6=
EXTT7=
EXTT8=
EXTT9=
EXTT10=
EXTT11=
PLAYORDER=
